# xmcd CD database file
#
# Track frame offsets:
#	150
#	18775
#	34775
#	60046
#	77898
#	93161
#	106778
#	120448
#	144350
#	157609
#	172615
#
# Disc length: 2474 seconds
#
# Revision: 0
# Processed by: cddbd v1.5.1PL2 Copyright (c) Steve Scherf et al.
# Submitted via: CDex 1.51
#
DISCID=6309a80b
DTITLE=Howard Miller - Nelson Town
DYEAR=1986
DGENRE=Country
TTITLE0=My Old Problem
TTITLE1=Nelson Town
TTITLE2=sea of Wild Roses
TTITLE3=Coal Dust in my Eyes
TTITLE4=Portugese Joe
TTITLE5=Learnin Lessons
TTITLE6=Drove momma Crazy
TTITLE7=Billy Barkers Gold
TTITLE8=lovin You Again
TTITLE9=Let the Clover Grow
TTITLE10=Star Gonna Shine
EXTD=YEAR: 1986
EXTT0=
EXTT1=
EXTT2=
EXTT3=
EXTT4=
EXTT5=
EXTT6=
EXTT7=
EXTT8=
EXTT9=
EXTT10=
PLAYORDER=
